<mxfile host="app.diagrams.net" modified="2024-06-05T11:59:07.900Z" agent="Mozilla/5.0 (Windows NT 10.0; Win64; x64) AppleWebKit/537.36 (KHTML, like Gecko) Chrome/121.0.0.0 Safari/537.36" etag="TlmH8BHc2OcKDEcjkUvm" version="24.4.14" type="device">
  <diagram name="Página-1" id="NZQ_JwJvkkDvWegeIX17">
    <mxGraphModel dx="1434" dy="782" grid="1" gridSize="10" guides="1" tooltips="1" connect="1" arrows="1" fold="1" page="1" pageScale="1" pageWidth="827" pageHeight="1169" math="0" shadow="0">
      <root>
        <mxCell id="0" />
        <mxCell id="1" parent="0" />
        <mxCell id="rmiI7BEgkwLIp2xSduWA-3" value="" style="edgeStyle=orthogonalEdgeStyle;rounded=0;orthogonalLoop=1;jettySize=auto;html=1;" edge="1" parent="1" source="rmiI7BEgkwLIp2xSduWA-1" target="rmiI7BEgkwLIp2xSduWA-2">
          <mxGeometry relative="1" as="geometry" />
        </mxCell>
        <mxCell id="rmiI7BEgkwLIp2xSduWA-1" value="Entrar no app" style="ellipse;whiteSpace=wrap;html=1;" vertex="1" parent="1">
          <mxGeometry x="50" y="40" width="120" height="80" as="geometry" />
        </mxCell>
        <mxCell id="rmiI7BEgkwLIp2xSduWA-5" value="" style="edgeStyle=orthogonalEdgeStyle;rounded=0;orthogonalLoop=1;jettySize=auto;html=1;" edge="1" parent="1" source="rmiI7BEgkwLIp2xSduWA-2" target="rmiI7BEgkwLIp2xSduWA-4">
          <mxGeometry relative="1" as="geometry" />
        </mxCell>
        <mxCell id="rmiI7BEgkwLIp2xSduWA-2" value="Clicar em criar novo usuário" style="whiteSpace=wrap;html=1;" vertex="1" parent="1">
          <mxGeometry x="50" y="160" width="120" height="60" as="geometry" />
        </mxCell>
        <mxCell id="rmiI7BEgkwLIp2xSduWA-7" value="" style="edgeStyle=orthogonalEdgeStyle;rounded=0;orthogonalLoop=1;jettySize=auto;html=1;" edge="1" parent="1" source="rmiI7BEgkwLIp2xSduWA-4" target="rmiI7BEgkwLIp2xSduWA-6">
          <mxGeometry relative="1" as="geometry" />
        </mxCell>
        <mxCell id="rmiI7BEgkwLIp2xSduWA-4" value="Colocar E-mail" style="whiteSpace=wrap;html=1;" vertex="1" parent="1">
          <mxGeometry x="50" y="280" width="120" height="60" as="geometry" />
        </mxCell>
        <mxCell id="rmiI7BEgkwLIp2xSduWA-11" value="" style="edgeStyle=orthogonalEdgeStyle;rounded=0;orthogonalLoop=1;jettySize=auto;html=1;" edge="1" parent="1" source="rmiI7BEgkwLIp2xSduWA-6" target="rmiI7BEgkwLIp2xSduWA-10">
          <mxGeometry relative="1" as="geometry" />
        </mxCell>
        <mxCell id="rmiI7BEgkwLIp2xSduWA-15" value="" style="edgeStyle=orthogonalEdgeStyle;rounded=0;orthogonalLoop=1;jettySize=auto;html=1;" edge="1" parent="1" source="rmiI7BEgkwLIp2xSduWA-6" target="rmiI7BEgkwLIp2xSduWA-14">
          <mxGeometry relative="1" as="geometry" />
        </mxCell>
        <mxCell id="rmiI7BEgkwLIp2xSduWA-6" value="E-mail já cadastrado?" style="rhombus;whiteSpace=wrap;html=1;" vertex="1" parent="1">
          <mxGeometry x="60" y="400" width="100" height="90" as="geometry" />
        </mxCell>
        <mxCell id="rmiI7BEgkwLIp2xSduWA-13" value="" style="edgeStyle=orthogonalEdgeStyle;rounded=0;orthogonalLoop=1;jettySize=auto;html=1;" edge="1" parent="1" source="rmiI7BEgkwLIp2xSduWA-10" target="rmiI7BEgkwLIp2xSduWA-12">
          <mxGeometry relative="1" as="geometry" />
        </mxCell>
        <mxCell id="rmiI7BEgkwLIp2xSduWA-10" value="Sim" style="text;html=1;align=center;verticalAlign=middle;whiteSpace=wrap;rounded=0;" vertex="1" parent="1">
          <mxGeometry x="200" y="430" width="60" height="30" as="geometry" />
        </mxCell>
        <mxCell id="rmiI7BEgkwLIp2xSduWA-12" value="Logar E-mail" style="whiteSpace=wrap;html=1;" vertex="1" parent="1">
          <mxGeometry x="300" y="415" width="120" height="60" as="geometry" />
        </mxCell>
        <mxCell id="rmiI7BEgkwLIp2xSduWA-14" value="Não" style="text;html=1;align=center;verticalAlign=middle;whiteSpace=wrap;rounded=0;" vertex="1" parent="1">
          <mxGeometry x="80" y="530" width="60" height="30" as="geometry" />
        </mxCell>
      </root>
    </mxGraphModel>
  </diagram>
</mxfile>
